<svg xmlns="http://www.w3.org/2000/svg" viewBox="33 -1420 3519 1444" role="img" aria-label="JRO">
  <g transform="scale(1,-1)" fill="currentColor">
    <path d="M653.7990112304688 235.0396728515625Q653.7990112304688 117.51983642578125 563.7991943359375 46.839935302734375Q473.79937744140625 -23.8399658203125 320.11968994140625 -23.8399658203125Q182.11993408203125 -23.8399658203125 107.320068359375 33.219970703125Q32.52020263671875 90.2799072265625 32.52020263671875 178.35980224609375Q32.52020263671875 232.71966552734375 61.660125732421875 266.25958251953125Q90.800048828125 299.79949951171875 146.83990478515625 299.79949951171875Q189.039794921875 299.79949951171875 217.41970825195312 266.37957763671875Q245.79962158203125 232.95965576171875 245.79962158203125 176.75982666015625V99.1199951171875Q245.79962158203125 49.0 266.67962646484375 19.160003662109375Q287.55963134765625 -10.67999267578125 337.5196533203125 -10.67999267578125Q390.63970947265625 -10.67999267578125 422.8597412109375 29.339996337890625Q455.07977294921875 69.3599853515625 455.07977294921875 143.8399658203125Q455.07977294921875 194.83990478515625 431.2798156738281 243.93984985351562Q407.4798583984375 293.039794921875 375.8199157714844 347.77972412109375Q344.15997314453125 402.5196533203125 320.3600158691406 470.3795471191406Q296.56005859375 538.2394409179688 296.56005859375 627.75927734375V1334.2000732421875Q296.56005859375 1351.9200439453125 290.1600646972656 1361.0000305175781Q283.76007080078125 1370.0800170898438 267.7200927734375 1372.2000122070312L179.0399169921875 1384.7200317382812Q170.5599365234375 1386.280029296875 167.3199462890625 1388.1200256347656Q164.0799560546875 1389.9600219726562 164.0799560546875 1392.6400146484375Q164.0799560546875 1396.3200073242188 167.8199462890625 1398.1600036621094Q171.5599365234375 1400.0 175.11993408203125 1400.0H679.1992797851562Q685.1192626953125 1400.0 688.2392578125 1398.4400024414062Q691.3592529296875 1396.8800048828125 691.3592529296875 1393.760009765625Q691.3592529296875 1390.2000122070312 669.6793212890625 1385.280029296875L593.9591064453125 1372.760009765625Q577.2391357421875 1369.52001953125 568.9391479492188 1362.9600219726562Q560.63916015625 1356.4000244140625 560.63916015625 1343.1600341796875V629.75927734375Q560.63916015625 565.4793701171875 574.6791381835938 515.0994262695312Q588.7191162109375 464.719482421875 607.2190856933594 420.5395202636719Q625.7190551757812 376.35955810546875 639.759033203125 331.7995910644531Q653.7990112304688 287.2396240234375 653.7990112304688 235.0396728515625Z M2020.3990478515625 912.080078125Q2020.3990478515625 810.7600708007812 1975.8790588378906 730.0400695800781Q1931.3590698242188 649.320068359375 1850.4190979003906 596.6400756835938Q1769.4791259765625 543.9600830078125 1657.7191772460938 524.60009765625Q1638.1192016601562 521.4801025390625 1617.2392272949219 518.9201049804688Q1596.3592529296875 516.360107421875 1574.9192810058594 515.3001098632812Q1553.4793090820312 514.2401123046875 1530.7593383789062 514.2401123046875Q1453.7194213867188 514.2401123046875 1394.9594116210938 523.9201049804688Q1336.1994018554688 533.60009765625 1291.1593627929688 552.8800964355469Q1246.1193237304688 572.1600952148438 1209.6793212890625 601.360107421875L1219.039306640625 616.080078125Q1252.9993286132812 588.4400634765625 1291.9393920898438 572.06005859375Q1330.8794555664062 555.6800537109375 1373.8195190429688 548.6800537109375Q1416.7595825195312 541.6800537109375 1462.2796020507812 541.6800537109375Q1594.1997680664062 541.6800537109375 1673.6998596191406 630.6201171875Q1753.199951171875 719.5601806640625 1753.199951171875 901.440185546875Q1753.199951171875 1040.5201416015625 1701.2199096679688 1148.9201049804688Q1649.2398681640625 1257.320068359375 1559.4197692871094 1319.300048828125Q1469.5996704101562 1381.280029296875 1355.7994995117188 1381.280029296875H1263.19921875V65.919921875Q1263.19921875 47.199951171875 1272.2192077636719 38.559967041015625Q1281.2391967773438 29.91998291015625 1301.2791748046875 26.239990234375L1384.559326171875 13.5999755859375Q1390.9193115234375 13.03997802734375 1393.539306640625 11.47998046875Q1396.1593017578125 9.91998291015625 1396.1593017578125 6.239990234375Q1396.1593017578125 0.0 1386.79931640625 0.0H874.4000244140625Q869.7200317382812 0.0 867.3800354003906 2.05999755859375Q865.0400390625 4.1199951171875 865.0400390625 6.239990234375Q865.0400390625 11.91998291015625 876.6400146484375 13.5999755859375L959.920166015625 26.239990234375Q979.9601440429688 29.91998291015625 988.9801330566406 38.559967041015625Q998.0001220703125 47.199951171875 998.0001220703125 65.919921875V1346.4000244140625Q998.0001220703125 1358.4000244140625 988.7001342773438 1364.7400207519531Q979.400146484375 1371.0800170898438 959.920166015625 1373.760009765625L876.6400146484375 1386.4000244140625Q865.0400390625 1388.0800170898438 865.0400390625 1393.760009765625Q865.0400390625 1396.3200073242188 867.3800354003906 1398.1600036621094Q869.7200317382812 1400.0 874.4000244140625 1400.0H1354.6795043945312Q1563.87939453125 1400.0 1712.7392883300781 1339.6000061035156Q1861.5991821289062 1279.2000122070312 1940.9991149902344 1169.5600280761719Q2020.3990478515625 1059.9200439453125 2020.3990478515625 912.080078125ZM1475.6398315429688 531.2000732421875 1722.47900390625 559.3599853515625 2012.5990600585938 79.0400390625Q2034.3991088867188 44.27996826171875 2058.9591674804688 32.219970703125Q2083.5192260742188 20.15997314453125 2113.75927734375 13.5999755859375Q2120.1192626953125 11.91998291015625 2122.7392578125 10.91998291015625Q2125.3592529296875 9.91998291015625 2125.3592529296875 6.239990234375Q2125.3592529296875 4.1199951171875 2123.019256591797 2.05999755859375Q2120.6792602539062 0.0 2115.999267578125 0.0H1668.9199829101562Q1659.5599975585938 0.0 1659.5599975585938 6.239990234375Q1659.5599975585938 9.91998291015625 1662.4599914550781 10.639984130859375Q1665.3599853515625 11.3599853515625 1671.1599731445312 13.5999755859375L1715.4000854492188 21.8399658203125Q1739.7600708007812 28.87994384765625 1745.2000427246094 43.919952392578125Q1750.6400146484375 58.9599609375 1732.8400268554688 89.679931640625Z M2873.52001953125 1420.0Q3025.1199340820312 1420.0 3149.659881591797 1367.239990234375Q3274.1998291015625 1314.47998046875 3364.3598022460938 1218.4999694824219Q3454.519775390625 1122.5199584960938 3503.259765625 991.5799560546875Q3551.999755859375 860.6399536132812 3551.999755859375 704.719970703125Q3551.999755859375 541.719970703125 3503.219757080078 408.0999755859375Q3454.4397583007812 274.47998046875 3364.759765625 178.8599853515625Q3275.0797729492188 83.239990234375 3151.8797912597656 31.6199951171875Q3028.6798095703125 -20.0 2880.3998413085938 -20.0Q2728.3599243164062 -20.0 2603.5999755859375 32.480010986328125Q2478.8400268554688 84.96002197265625 2388.9600524902344 181.50003051757812Q2299.080078125 278.0400390625 2250.340087890625 411.0000305175781Q2201.60009765625 543.9600219726562 2201.60009765625 705.3599853515625Q2201.60009765625 864.8800048828125 2250.9400939941406 996.260009765625Q2300.2800903320312 1127.6400146484375 2390.5200805664062 1222.2000122070312Q2480.7600708007812 1316.760009765625 2603.6200561523438 1368.3800048828125Q2726.4800415039062 1420.0 2873.52001953125 1420.0ZM3282.16064453125 502.720703125Q3282.16064453125 646.440673828125 3257.7406311035156 778.860595703125Q3233.3206176757812 911.280517578125 3189.4405822753906 1023.4004211425781Q3145.560546875 1135.5203247070312 3085.720489501953 1219.0202331542969Q3025.8804321289062 1302.5201416015625 2955.2603454589844 1348.7400817871094Q2884.6402587890625 1394.9600219726562 2806.64013671875 1394.9600219726562Q2706.8798828125 1394.9600219726562 2631.0996704101562 1338.9599304199219Q2555.3194580078125 1282.9598388671875 2512.9393310546875 1174.4396667480469Q2470.5592041015625 1065.9194946289062 2470.5592041015625 908.479248046875Q2470.5592041015625 762.519287109375 2494.919219970703 628.1993713378906Q2519.2792358398438 493.87945556640625 2563.4392700195312 380.5795593261719Q2607.5993041992188 267.2796630859375 2667.099365234375 182.93975830078125Q2726.5994262695312 98.599853515625 2797.9395141601562 51.819915771484375Q2869.2796020507812 5.03997802734375 2947.2797241210938 5.03997802734375Q3049.3999633789062 5.03997802734375 3124.7401733398438 60.2000732421875Q3200.0803833007812 115.36016845703125 3241.1205139160156 226.06033325195312Q3282.16064453125 336.760498046875 3282.16064453125 502.720703125Z"/>
  </g>
</svg>
